<?xml version="1.0" encoding="utf-8"?>
<!-- Generator: Adobe Illustrator 16.0.0, SVG Export Plug-In . SVG Version: 6.00 Build 0)  -->
<!DOCTYPE svg PUBLIC "-//W3C//DTD SVG 1.1//EN" "http://www.w3.org/Graphics/SVG/1.1/DTD/svg11.dtd">
<svg version="1.1" id="Layer_1" xmlns="http://www.w3.org/2000/svg" xmlns:xlink="http://www.w3.org/1999/xlink" x="0px" y="0px"
	 width="1210px" height="1178px" viewBox="0 0 1210 1178" enable-background="new 0 0 1210 1178" xml:space="preserve">
<g>
	<defs>
		<rect id="SVGID_1_" y="0.001" width="1210" height="1177.999"/>
	</defs>
	<clipPath id="SVGID_2_">
		<use xlink:href="#SVGID_1_"  overflow="visible"/>
	</clipPath>
</g>
<g>
	<defs>
		<rect id="SVGID_3_" width="1210" height="1178"/>
	</defs>
	<clipPath id="SVGID_4_">
		<use xlink:href="#SVGID_3_"  overflow="visible"/>
	</clipPath>
	<path clip-path="url(#SVGID_4_)" fill="none" stroke="#06EEF4" stroke-width="9.151" stroke-miterlimit="10" d="M645.953,710.212
		c-2.012,7.339-3.644,14.768-4.869,22.253"/>
	<path clip-path="url(#SVGID_4_)" fill="#06EEF4" d="M639.736,787.68c-8.665-26.329-23.902-59.164-40.57-79.788l42.903,17.355
		l44.069-14.105C667.979,730.463,650.333,762.07,639.736,787.68"/>
	
		<line clip-path="url(#SVGID_4_)" fill="none" stroke="#06EEF4" stroke-width="20.59" stroke-miterlimit="10" x1="642.475" y1="533.836" x2="642.475" y2="722.708"/>
</g>
<text transform="matrix(1 0 0 1 561.543 480.1279)"><tspan x="0" y="0" fill="#2977BC" font-family="'Nunito-ExtraBold'" font-size="54.472" letter-spacing="-1">Sna</tspan><tspan x="79.419" y="0" fill="#2977BC" font-family="'Nunito-ExtraBold'" font-size="54.472" letter-spacing="-1">p</tspan><tspan x="108.561" y="0" fill="#2977BC" font-family="'Nunito-ExtraBold'" font-size="54.472" letter-spacing="-1">.ht</tspan><tspan x="164.176" y="0" fill="#2977BC" font-family="'Nunito-ExtraBold'" font-size="54.472" letter-spacing="-1">m</tspan><tspan x="208.243" y="0" fill="#2977BC" font-family="'Nunito-ExtraBold'" font-size="54.472">l</tspan></text>
<text transform="matrix(1 0 0 1 236.3452 193.7144)"><tspan x="0" y="0" fill="#B2B2B2" font-family="'Nunito-ExtraBold'" font-size="54.472" letter-spacing="-1">Rob</tspan><tspan x="86.282" y="0" fill="#B2B2B2" font-family="'Nunito-ExtraBold'" font-size="54.472" letter-spacing="-1">o</tspan><tspan x="114.607" y="0" fill="#B2B2B2" font-family="'Nunito-ExtraBold'" font-size="54.472" letter-spacing="-1">t</tspan><tspan x="131.275" y="0" fill="#B2B2B2" font-family="'Nunito-ExtraBold'" font-size="54.472" letter-spacing="-1"> </tspan><tspan x="141.516" y="0" fill="#B2B2B2" font-family="'Nunito-ExtraBold'" font-size="54.472" letter-spacing="-1">i</tspan><tspan x="152.9" y="0" fill="#B2B2B2" font-family="'Nunito-ExtraBold'" font-size="54.472" letter-spacing="-1">n a </tspan><tspan x="227.252" y="0" fill="#B2B2B2" font-family="'Nunito-ExtraBold'" font-size="54.472" letter-spacing="-1">C</tspan><tspan x="256.939" y="0" fill="#B2B2B2" font-family="'Nunito-ExtraBold'" font-size="54.472" letter-spacing="-1">a</tspan><tspan x="281.887" y="0" fill="#B2B2B2" font-family="'Nunito-ExtraBold'" font-size="54.472">n</tspan></text>
<g>
	<defs>
		<rect id="SVGID_5_" width="1210" height="1178"/>
	</defs>
	<clipPath id="SVGID_6_">
		<use xlink:href="#SVGID_5_"  overflow="visible"/>
	</clipPath>
	
		<rect x="390.366" y="381.44" clip-path="url(#SVGID_6_)" fill="none" stroke="#06EEF4" stroke-width="9.389" stroke-miterlimit="10" width="519.872" height="152.396"/>
	<path clip-path="url(#SVGID_6_)" fill="#2C77BC" d="M508.064,420.569l23.345,23.345v38.909c0,4.28-3.502,7.782-7.782,7.782h-42.838
		c-4.28,0-7.743-3.502-7.743-7.782l0.039-54.472c0-4.28,3.463-7.782,7.743-7.782H508.064z M504.173,447.805h21.399l-21.399-21.399
		V447.805z"/>
	<path clip-path="url(#SVGID_6_)" fill="#B2B2B2" d="M207.452,143.604c-8.839-0.002-17.678,0.022-26.517-0.04
		c-0.816-0.005-1.813-0.342-2.406-0.879c-1.909-1.724-3.668-3.613-5.484-5.44c-1.216-1.224-2.529-1.902-4.409-1.866
		c-6.797,0.13-13.598,0.046-20.397,0.044c-2.303,0-3.077,0.779-3.077,3.112c-0.002,17.134-0.001,34.268,0,51.402
		c0,2.438,0.735,3.185,3.136,3.186c9.926,0.002,19.854,0.001,29.781,0.001c10.018,0,20.035,0.001,30.053-0.001
		c2.355,0,3.149-0.807,3.149-3.198c0.002-14.188,0.001-28.375,0.001-42.563C211.282,144.436,210.436,143.604,207.452,143.604"/>
</g>
<text transform="matrix(1 0 0 1 378.9951 330.5557)"><tspan x="0" y="0" fill="#B2B2B2" font-family="'Nunito-ExtraBold'" font-size="54.472" letter-spacing="-1">e</tspan><tspan x="25.983" y="0" fill="#B2B2B2" font-family="'Nunito-ExtraBold'" font-size="54.472" letter-spacing="-1">B</tspan><tspan x="54.145" y="0" fill="#B2B2B2" font-family="'Nunito-ExtraBold'" font-size="54.472" letter-spacing="-1">ra</tspan><tspan x="95.597" y="0" fill="#B2B2B2" font-family="'Nunito-ExtraBold'" font-size="54.472" letter-spacing="-1">i</tspan><tspan x="106.981" y="0" fill="#B2B2B2" font-family="'Nunito-ExtraBold'" font-size="54.472" letter-spacing="-1">n Snap</tspan><tspan x="255.251" y="0" fill="#B2B2B2" font-family="'Nunito-ExtraBold'" font-size="54.472">!</tspan></text>
<g>
	<defs>
		<rect id="SVGID_7_" width="1210" height="1178"/>
	</defs>
	<clipPath id="SVGID_8_">
		<use xlink:href="#SVGID_7_"  overflow="visible"/>
	</clipPath>
	<path clip-path="url(#SVGID_8_)" fill="#B2B2B2" d="M350.117,280.459c-8.839-0.002-17.678,0.022-26.517-0.039
		c-0.816-0.006-1.813-0.343-2.406-0.88c-1.909-1.724-3.668-3.613-5.484-5.44c-1.216-1.224-2.529-1.901-4.409-1.866
		c-6.797,0.13-13.598,0.046-20.397,0.045c-2.303-0.001-3.077,0.778-3.077,3.111c-0.002,17.134-0.001,34.268,0,51.402
		c0,2.438,0.735,3.186,3.136,3.186c9.926,0.002,19.854,0.001,29.781,0.001c10.018,0,20.035,0.001,30.053-0.001
		c2.355,0,3.149-0.807,3.149-3.197c0.002-14.188,0.001-28.376,0.001-42.564C353.947,281.292,353.101,280.459,350.117,280.459"/>
	<polyline clip-path="url(#SVGID_8_)" fill="none" stroke="#B2B2B2" stroke-width="2.347" stroke-miterlimit="10" points="
		178.222,206.899 178.222,301.106 251.722,301.106 	"/>
	<path clip-path="url(#SVGID_8_)" fill="#B2B2B2" d="M265.888,301.106c-6.666,2.473-14.936,6.693-20.063,11.163l4.038-11.163
		l-4.038-11.161C250.952,294.415,259.222,298.635,265.888,301.106"/>
	<polyline clip-path="url(#SVGID_8_)" fill="none" stroke="#B2B2B2" stroke-width="2.347" stroke-miterlimit="10" points="
		320.886,342.554 320.886,436.761 350.553,436.761 	"/>
	<path clip-path="url(#SVGID_8_)" fill="#B2B2B2" d="M364.719,436.761c-6.666,2.474-14.936,6.693-20.062,11.164l4.037-11.164
		l-4.037-11.161C349.783,430.07,358.053,434.29,364.719,436.761"/>
</g>
<rect fill="none" width="1210" height="1178"/>
<g>
	<g>
		<defs>
			<circle id="SVGID_9_" cx="642.877" cy="972.123" r="153.877"/>
		</defs>
		<clipPath id="SVGID_10_">
			<use xlink:href="#SVGID_9_"  overflow="visible"/>
		</clipPath>
		<g transform="translate(-7 -7)" clip-path="url(#SVGID_10_)">
			<path fill="#DB4437" d="M520.428,825.245v188.85h68.877l60.571-104.916h153.878v-83.934H520.428z"/>
			
				<linearGradient id="SVGID_11_" gradientUnits="userSpaceOnUse" x1="63.5977" y1="1080.918" x2="77.3131" y2="1088.9297" gradientTransform="matrix(6.6932 0 0 -6.6932 107.6438 8177.2139)">
				<stop  offset="0" style="stop-color:#A52714;stop-opacity:0.6"/>
				<stop  offset="0.66" style="stop-color:#A52714;stop-opacity:0"/>
			</linearGradient>
			<path fill="url(#SVGID_11_)" d="M520.428,825.245v188.85h68.877l60.571-104.916h153.878v-83.934H520.428z"/>
		</g>
	</g>
	<g>
		<defs>
			<circle id="SVGID_12_" cx="642.877" cy="972.123" r="153.877"/>
		</defs>
		<clipPath id="SVGID_13_">
			<use xlink:href="#SVGID_12_"  overflow="visible"/>
		</clipPath>
		<path clip-path="url(#SVGID_13_)" fill="#3E2723" fill-opacity="0.15" d="M583.967,1006.482L514.32,887.035l-1.014,1.749
			l69.14,118.556L583.967,1006.482z"/>
	</g>
	<g>
		<defs>
			<circle id="SVGID_14_" cx="642.877" cy="972.123" r="153.877"/>
		</defs>
		<clipPath id="SVGID_15_">
			<use xlink:href="#SVGID_14_"  overflow="visible"/>
		</clipPath>
		<g transform="translate(-7 -7)" clip-path="url(#SVGID_15_)">
			<path fill="#0F9D58" d="M496,1133h146.48l67.986-67.985v-50.92H589.306L496,854.063V1133z"/>
			
				<linearGradient id="SVGID_16_" gradientUnits="userSpaceOnUse" x1="84.8979" y1="1057.541" x2="69.6586" y2="1066.468" gradientTransform="matrix(6.6932 0 0 -6.6932 107.6438 8177.2139)">
				<stop  offset="0" style="stop-color:#055524;stop-opacity:0.4"/>
				<stop  offset="0.33" style="stop-color:#055524;stop-opacity:0"/>
			</linearGradient>
			<path fill="url(#SVGID_16_)" d="M496,1133h146.48l67.986-67.985v-50.92H589.306L496,854.063V1133z"/>
		</g>
	</g>
	<g>
		<defs>
			<circle id="SVGID_17_" cx="642.877" cy="972.123" r="153.877"/>
		</defs>
		<clipPath id="SVGID_18_">
			<use xlink:href="#SVGID_17_"  overflow="visible"/>
		</clipPath>
		<path clip-path="url(#SVGID_18_)" fill="#263238" fill-opacity="0.15" d="M702.051,1009.42l-1.451-0.839L633.471,1126h2.01
			l66.622-116.527L702.051,1009.42z"/>
	</g>
	<g>
		<defs>
			<circle id="SVGID_19_" cx="642.877" cy="972.123" r="153.877"/>
		</defs>
		<clipPath id="SVGID_20_">
			<use xlink:href="#SVGID_19_"  overflow="visible"/>
		</clipPath>
		<g clip-path="url(#SVGID_20_)">
			<g transform="translate(-7 -7)">
				<defs>
					<polygon id="SVGID_21_" points="496,1133 642.48,1133 710.467,1065.015 710.467,1014.095 589.306,1014.095 496,854.063 					
						"/>
				</defs>
				<clipPath id="SVGID_22_">
					<use xlink:href="#SVGID_21_"  overflow="visible"/>
				</clipPath>
				<g clip-path="url(#SVGID_22_)">
					<path fill="#FFCD40" d="M649.877,909.179l60.59,104.916L642.48,1133h161.274V909.179H649.877z"/>
					
						<linearGradient id="SVGID_23_" gradientUnits="userSpaceOnUse" x1="87.7666" y1="1087.5059" x2="91.6044" y2="1070.7003" gradientTransform="matrix(6.6932 0 0 -6.6932 107.6438 8177.2139)">
						<stop  offset="0" style="stop-color:#EA6100;stop-opacity:0.3"/>
						<stop  offset="0.66" style="stop-color:#EA6100;stop-opacity:0"/>
					</linearGradient>
					<path fill="url(#SVGID_23_)" d="M649.877,909.179l60.59,104.916L642.48,1133h161.274V909.179H649.877z"/>
				</g>
			</g>
			<g>
				<defs>
					<circle id="SVGID_24_" cx="649.877" cy="979.123" r="153.877"/>
				</defs>
				<clipPath id="SVGID_25_">
					<use xlink:href="#SVGID_24_"  overflow="visible"/>
				</clipPath>
				<g transform="translate(-7 -7)" clip-path="url(#SVGID_25_)">
					<path fill="#FFCD40" d="M656.877,916.179l60.59,104.916L649.48,1140h161.274V916.179H656.877z"/>
					
						<linearGradient id="SVGID_26_" gradientUnits="userSpaceOnUse" x1="94.7666" y1="1094.5059" x2="98.6044" y2="1077.7003" gradientTransform="matrix(6.6932 0 0 -6.6932 67.7915 8231.0664)">
						<stop  offset="0" style="stop-color:#EA6100;stop-opacity:0.3"/>
						<stop  offset="0.66" style="stop-color:#EA6100;stop-opacity:0"/>
					</linearGradient>
					<path fill="url(#SVGID_26_)" d="M656.877,916.179l60.59,104.916L649.48,1140h161.274V916.179H656.877z"/>
				</g>
			</g>
			<g>
				<defs>
					<circle id="SVGID_27_" cx="649.877" cy="979.123" r="153.877"/>
				</defs>
				<clipPath id="SVGID_28_">
					<use xlink:href="#SVGID_27_"  overflow="visible"/>
				</clipPath>
				<g clip-path="url(#SVGID_28_)">
					<g transform="translate(-7 -7)">
						<defs>
							<polygon id="SVGID_29_" points="656.877,916.179 717.467,1021.095 649.48,1140 810.755,1140 810.755,916.179 							"/>
						</defs>
						<clipPath id="SVGID_30_">
							<use xlink:href="#SVGID_29_"  overflow="visible"/>
						</clipPath>
						<g clip-path="url(#SVGID_30_)">
							<path fill="#DB4437" d="M527.428,832.245v188.85h68.877l60.571-104.916h153.878v-83.934H527.428z"/>
							
								<linearGradient id="SVGID_31_" gradientUnits="userSpaceOnUse" x1="70.5977" y1="1087.918" x2="84.3131" y2="1095.9297" gradientTransform="matrix(6.6932 0 0 -6.6932 67.7915 8231.0664)">
								<stop  offset="0" style="stop-color:#A52714;stop-opacity:0.6"/>
								<stop  offset="0.66" style="stop-color:#A52714;stop-opacity:0"/>
							</linearGradient>
							<path fill="url(#SVGID_31_)" d="M527.428,832.245v188.85h68.877l60.571-104.916h153.878v-83.934H527.428z"/>
						</g>
					</g>
					<g>
						<defs>
							<circle id="SVGID_32_" cx="656.877" cy="986.123" r="153.877"/>
						</defs>
						<clipPath id="SVGID_33_">
							<use xlink:href="#SVGID_32_"  overflow="visible"/>
						</clipPath>
						
							<radialGradient id="SVGID_34_" cx="663.0146" cy="1092.8994" r="21.966" gradientTransform="matrix(6.6932 0 0 -6.6932 -3787.4819 8231.0664)" gradientUnits="userSpaceOnUse">
							<stop  offset="0" style="stop-color:#3E2723;stop-opacity:0.2"/>
							<stop  offset="1" style="stop-color:#3E2723;stop-opacity:0"/>
						</radialGradient>
						<path clip-path="url(#SVGID_33_)" fill="url(#SVGID_34_)" d="M656.877,916.179v36.633l137.092-36.633H656.877z"/>
					</g>
					<g>
						<defs>
							<circle id="SVGID_35_" cx="656.877" cy="986.123" r="153.877"/>
						</defs>
						<clipPath id="SVGID_36_">
							<use xlink:href="#SVGID_35_"  overflow="visible"/>
						</clipPath>
						<g clip-path="url(#SVGID_36_)">
							<g transform="translate(-7 -7)">
								<defs>
									<polygon id="SVGID_37_" points="534.428,839.245 534.428,909.784 603.306,1028.095 663.877,923.179 817.755,923.179 
										817.755,839.245 									"/>
								</defs>
								<clipPath id="SVGID_38_">
									<use xlink:href="#SVGID_37_"  overflow="visible"/>
								</clipPath>
								<g clip-path="url(#SVGID_38_)">
									<path fill="#0F9D58" d="M510,1147h146.48l67.986-67.985v-50.92H603.306L510,868.063V1147z"/>
									
										<linearGradient id="SVGID_39_" gradientUnits="userSpaceOnUse" x1="98.8979" y1="1071.541" x2="83.6586" y2="1080.468" gradientTransform="matrix(6.6932 0 0 -6.6932 27.9393 8284.918)">
										<stop  offset="0" style="stop-color:#055524;stop-opacity:0.4"/>
										<stop  offset="0.33" style="stop-color:#055524;stop-opacity:0"/>
									</linearGradient>
									<path fill="url(#SVGID_39_)" d="M510,1147h146.48l67.986-67.985v-50.92H603.306L510,868.063V1147z"/>
								</g>
							</g>
							<g>
								<defs>
									<circle id="SVGID_40_" cx="663.877" cy="993.123" r="153.877"/>
								</defs>
								<clipPath id="SVGID_41_">
									<use xlink:href="#SVGID_40_"  overflow="visible"/>
								</clipPath>
								
									<radialGradient id="SVGID_42_" cx="651.6484" cy="1101.8408" r="20.3896" gradientTransform="matrix(6.6932 0 0 -6.6932 -3827.3342 8284.918)" gradientUnits="userSpaceOnUse">
									<stop  offset="0" style="stop-color:#3E2723;stop-opacity:0.2"/>
									<stop  offset="1" style="stop-color:#3E2723;stop-opacity:0"/>
								</radialGradient>
								<path clip-path="url(#SVGID_41_)" fill="url(#SVGID_42_)" d="M534.428,909.977l100.107,100.09l-31.229,18.028
									L534.428,909.977z"/>
							</g>
							<g>
								<defs>
									<circle id="SVGID_43_" cx="663.877" cy="993.123" r="153.877"/>
								</defs>
								<clipPath id="SVGID_44_">
									<use xlink:href="#SVGID_43_"  overflow="visible"/>
								</clipPath>
								
									<radialGradient id="SVGID_45_" cx="670.9707" cy="1089.4004" r="22.9556" gradientTransform="matrix(6.6932 0 0 -6.6932 -3827.3342 8284.918)" gradientUnits="userSpaceOnUse">
									<stop  offset="0" style="stop-color:#263238;stop-opacity:0.2"/>
									<stop  offset="1" style="stop-color:#263238;stop-opacity:0"/>
								</radialGradient>
								<path clip-path="url(#SVGID_44_)" fill="url(#SVGID_45_)" d="M656.586,1146.808l36.65-136.741l31.23,18.028
									L656.586,1146.808z"/>
							</g>
							<g>
								<defs>
									<circle id="SVGID_46_" cx="663.877" cy="993.123" r="153.877"/>
								</defs>
								<clipPath id="SVGID_47_">
									<use xlink:href="#SVGID_46_"  overflow="visible"/>
								</clipPath>
								<g transform="translate(-7 -7)" clip-path="url(#SVGID_47_)">
									<circle fill="#F1F1F1" cx="670.877" cy="1000.123" r="69.944"/>
									<circle fill="#4285F4" cx="670.877" cy="1000.123" r="55.956"/>
								</g>
							</g>
							<g>
								<defs>
									<circle id="SVGID_48_" cx="663.877" cy="993.123" r="153.877"/>
								</defs>
								<clipPath id="SVGID_49_">
									<use xlink:href="#SVGID_48_"  overflow="visible"/>
								</clipPath>
								<g transform="translate(-7 -7)" clip-path="url(#SVGID_49_)">
									<path fill="#3E2723" fill-opacity="0.2" d="M670.877,928.43c-38.626,0-69.944,31.317-69.944,69.944v1.749
										c0-38.627,31.317-69.944,69.944-69.944h153.878v-1.749H670.877z"/>
									<path fill="#FFFFFF" fill-opacity="0.1" d="M731.379,1035.095c-12.1,20.878-34.64,34.973-60.502,34.973
										c-25.879,0-48.418-14.095-60.519-34.973h-0.07L517,875.063v1.748l93.306,160.033h0.07
										c12.101,20.878,34.64,34.972,60.519,34.972c25.862,0,48.402-14.076,60.502-34.972h0.088v-1.749H731.379z"/>
									<path opacity="0.1" fill="#3E2723" enable-background="new    " d="M672.626,930.179c-0.298,0-0.577,0.034-0.874,0.052
										c38.225,0.473,69.07,31.563,69.07,69.893c0,38.329-30.846,69.419-69.07,69.892c0.297,0,0.576,0.053,0.874,0.053
										c38.627,0,69.944-31.318,69.944-69.944C742.57,961.496,711.253,930.179,672.626,930.179z"/>
									<path fill="#FFFFFF" fill-opacity="0.2" d="M732.078,1037.42c5.945-10.281,9.391-22.172,9.391-34.901
										c0-7.38-1.154-14.479-3.27-21.141c1.66,5.979,2.623,12.257,2.623,18.762c0,12.73-3.445,24.621-9.391,34.902l0.035,0.07
										l-67.986,118.905h2.029l66.604-116.527L732.078,1037.42L732.078,1037.42z"/>
								</g>
							</g>
							<g>
								<defs>
									<circle id="SVGID_50_" cx="663.877" cy="993.123" r="153.877"/>
								</defs>
								<clipPath id="SVGID_51_">
									<use xlink:href="#SVGID_50_"  overflow="visible"/>
								</clipPath>
								<g transform="translate(-7 -7)" clip-path="url(#SVGID_51_)">
									<path fill="#FFFFFF" fill-opacity="0.2" d="M670.877,847.994c84.686,0,153.389,68.423,153.86,153.003
										c0-0.298,0.018-0.577,0.018-0.874c0-84.982-68.896-153.878-153.878-153.878c-84.982,0-153.877,68.896-153.877,153.878
										c0,0.297,0.018,0.576,0.018,0.874C517.49,916.417,586.192,847.994,670.877,847.994L670.877,847.994z"/>
									<path fill="#3E2723" fill-opacity="0.15" d="M670.877,1152.251c84.686,0,153.389-68.423,153.86-153.003
										c0,0.298,0.018,0.577,0.018,0.875c0,84.982-68.896,153.877-153.878,153.877C585.895,1154,517,1085.105,517,1000.123
										c0-0.298,0.018-0.577,0.018-0.875C517.49,1083.828,586.192,1152.251,670.877,1152.251L670.877,1152.251z"/>
								</g>
							</g>
							
								<radialGradient id="SVGID_52_" cx="78.8901" cy="1106.1523" r="46.1762" gradientTransform="matrix(6.6932 0 0 -6.6932 27.9393 8284.918)" gradientUnits="userSpaceOnUse">
								<stop  offset="0" style="stop-color:#FFFFFF;stop-opacity:0.1"/>
								<stop  offset="1" style="stop-color:#FFFFFF;stop-opacity:0"/>
							</radialGradient>
							<circle fill="url(#SVGID_52_)" cx="663.877" cy="993.123" r="153.877"/>
						</g>
					</g>
				</g>
			</g>
		</g>
	</g>
</g>
</svg>
